<svg xmlns="http://www.w3.org/2000/svg" viewBox="0 0 512 512">
  <rect width="512" height="512" rx="112" fill="#101216"/>
  <path fill="#35d0a5" d="M118 122c0-28 22-50 50-50h176c28 0 50 22 50 50v268c0 28-22 50-50 50H168c-28 0-50-22-50-50V122Z"/>
  <path fill="#101216" d="M171 143h170c14 0 25 11 25 25v174c0 14-11 25-25 25H203l-54 40 14-56c-10-5-17-15-17-27V168c0-14 11-25 25-25Z"/>
  <circle cx="213" cy="245" r="20" fill="#f5b84b"/>
  <circle cx="258" cy="245" r="20" fill="#f5f7fb"/>
  <circle cx="303" cy="245" r="20" fill="#ff6b86"/>
</svg>
